<svg xmlns="http://www.w3.org/2000/svg"
viewBox="0 0 50 50" width="100%" height="100%" fill="currentColor"  xmlns:v="https://vecta.io/nano"><path d="M9.222 42.502L5.713 3.125h38.575l-3.514 39.37-15.797 4.38-15.755-4.373z" fill="#1572b6"/><path d="M25 43.528l12.766-3.539 3.003-33.644H25v37.183z" fill="#33a9dc"/><path d="M25 20.611h6.391l.441-4.945H25v-4.83h12.109l-1.302 14.605H25v-4.83z" fill="#fff"/><path d="M25.03 33.153l-.022.006-5.378-1.453-.344-3.852h-4.848l.677 7.583 9.892 2.747.023-.006v-5.025z" fill="#ebebeb"/><path d="M30.98 25.236l-.581 6.467-5.386 1.453v5.025l9.9-2.744.073-.816.839-9.386H30.98z" fill="#fff"/><path d="M25.017 10.836v4.83H13.352l-.433-4.83h12.098zM25 20.611v4.83h-5.311l-.431-4.83H25z" fill="#ebebeb"/></svg>