<svg xmlns="http://www.w3.org/2000/svg" viewBox="0 0 96 50" width="100%" height="100%" fill="none"  xmlns:v="https://vecta.io/nano"><g clip-path="url(#B)"><path d="M47.619 49.852c26.299 0 47.619-11.16 47.619-24.926S73.918 0 47.619 0 0 11.16 0 24.926s21.32 24.926 47.619 24.926z" fill="url(#A)"/><path d="M47.619 48c25.272 0 45.759-10.331 45.759-23.074S72.891 1.852 47.619 1.852 1.86 12.183 1.86 24.926 22.347 48 47.619 48z" fill="#6181b6"/><g fill="#fff"><path d="M56.882 32.407l2.269-11.63c.521-2.63.074-4.593-1.265-5.815-1.302-1.185-3.534-1.778-6.808-1.778h-3.943l1.116-5.778c.037-.222 0-.444-.149-.63a.67.67 0 0 0-.558-.259h-5.432a.76.76 0 0 0-.744.593L38.95 19.443c-.223-1.407-.744-2.593-1.637-3.556-1.6-1.815-4.092-2.741-7.478-2.741H19.382a.76.76 0 0 0-.744.593l-4.873 25.037c-.037.222 0 .444.149.63a.67.67 0 0 0 .558.259h5.469a.76.76 0 0 0 .744-.593l1.191-6.037h4.055c2.121 0 3.943-.222 5.32-.667 1.451-.481 2.753-1.259 3.906-2.333a11.97 11.97 0 0 0 2.307-2.852l-.967 5c-.037.222 0 .444.149.63a.67.67 0 0 0 .558.259h5.432a.76.76 0 0 0 .744-.593l2.679-13.704h3.72c1.6 0 2.046.296 2.195.445.112.111.335.555.074 1.926L49.89 32.22c-.037.222 0 .444.149.63a.67.67 0 0 0 .558.259h5.58c.335-.111.632-.37.707-.704zm-25.149-9.63c-.335 1.741-.967 3-1.897 3.704s-2.455 1.074-4.464 1.074h-2.418l1.749-8.963h3.125c2.307 0 3.237.482 3.609.889.484.593.595 1.741.298 3.296h0zm48.364-6.888c-1.6-1.815-4.092-2.741-7.478-2.741H62.091a.76.76 0 0 0-.744.593l-4.873 25c-.037.222 0 .444.149.63a.67.67 0 0 0 .558.259h5.469a.76.76 0 0 0 .744-.593L64.583 33h4.055c2.121 0 3.944-.222 5.32-.667 1.451-.481 2.753-1.259 3.906-2.333.967-.889 1.786-1.889 2.381-2.963a12.3 12.3 0 0 0 1.302-3.556c.632-3.222.149-5.741-1.451-7.593h0zm-5.692 6.889c-.335 1.741-.967 3-1.897 3.704s-2.455 1.074-4.464 1.074h-2.418l1.749-8.963H70.5c2.307 0 3.237.482 3.609.889.521.593.632 1.741.298 3.296z"/></g><g fill="#000004"><path d="M27.827 17.852c2.083 0 3.46.37 4.167 1.148s.856 2.074.484 3.926c-.372 1.926-1.116 3.333-2.195 4.148s-2.716 1.222-4.911 1.222h-3.311l2.046-10.444h3.72zM14.509 38.889h5.469l1.302-6.63h4.688c2.083 0 3.758-.222 5.097-.667s2.53-1.148 3.646-2.185c.93-.852 1.674-1.778 2.232-2.778s.967-2.111 1.191-3.333c.595-2.963.149-5.259-1.302-6.926s-3.757-2.482-6.92-2.482h-10.53l-4.873 25zM42.15 7.259h5.432l-1.302 6.63h4.836c3.051 0 5.134.519 6.287 1.593s1.488 2.778 1.042 5.148l-2.269 11.63H50.67l2.158-11.074c.26-1.259.149-2.111-.26-2.556s-1.339-.704-2.716-.704h-4.353l-2.79 14.333h-5.432l4.874-25zm28.349 10.593c2.083 0 3.46.37 4.167 1.148s.856 2.074.484 3.926c-.372 1.926-1.116 3.333-2.195 4.148s-2.716 1.222-4.911 1.222h-3.311l2.046-10.444h3.72zM57.18 38.889h5.469l1.302-6.63h4.688c2.083 0 3.757-.222 5.097-.667a9.78 9.78 0 0 0 3.646-2.185c.93-.852 1.674-1.778 2.232-2.778a10.78 10.78 0 0 0 1.191-3.333c.595-2.963.149-5.259-1.302-6.926s-3.757-2.482-6.92-2.482H62.054l-4.873 25z"/></g></g><defs><radialGradient id="A" cx="0" cy="0" r="1" gradientUnits="userSpaceOnUse" gradientTransform="translate(28.5906 8.76574) scale(62.5355 62.2576)"><stop stop-color="#fff"/><stop offset=".5" stop-color="#4c6b97"/><stop offset="1" stop-color="#231f20"/></radialGradient><clipPath id="B"><path fill="#fff" d="M0 0h95.238v50H0z"/></clipPath></defs></svg>