<svg xmlns="http://www.w3.org/2000/svg" viewBox="0 0 49 50" width="100%" height="100%" fill="none"  xmlns:v="https://vecta.io/nano"><g clip-path="url(#A)"><path d="M48.146 29.941c-.29-.881-1.049-1.494-2.031-1.641-.463-.069-.993-.04-1.62.09-1.093.226-1.905.313-2.497.329 2.235-3.785 4.052-8.101 5.098-12.164 1.692-6.57.788-9.563-.269-10.917C44.032 2.054 39.953.129 35.033.071c-2.625-.032-4.929.488-6.131.862a22.76 22.76 0 0 0-3.585-.329c-2.367-.038-4.458.48-6.245 1.544-.989-.336-2.577-.809-4.411-1.111C10.347.326 6.871.879 4.329 2.681 1.25 4.862-.177 8.652.087 13.946.171 15.627 1.108 20.74 2.584 25.59c.848 2.788 1.752 5.102 2.688 6.881 1.327 2.522 2.746 4.007 4.34 4.54.893.298 2.516.508 4.223-.919.216.263.505.524.888.767a5.9 5.9 0 0 0 1.676.708c2.141.537 4.147.403 5.858-.35l.026.849.038 1.184c.101 2.533.273 4.502.782 5.881a9.57 9.57 0 0 1 .105.314c.254.78.679 2.086 1.759 3.108 1.119 1.059 2.472 1.384 3.711 1.384.622 0 1.215-.082 1.735-.194 1.854-.399 3.96-1.006 5.483-3.182 1.44-2.057 2.14-5.155 2.267-10.036l.076-.653.339.03.087.006c1.888.086 4.197-.315 5.616-.976 1.12-.522 4.711-2.423 3.866-4.991" fill="#000"/><path d="M44.917 30.44c-5.615 1.162-6.001-.745-6.001-.745 5.928-8.824 8.407-20.026 6.268-22.767C39.35-.551 29.25 2.986 29.081 3.078l-.054.01c-1.109-.231-2.351-.369-3.746-.391-2.54-.042-4.468.668-5.93 1.781 0 0-18.017-7.446-17.179 9.364.178 3.576 5.11 27.059 10.992 19.966 2.15-2.594 4.227-4.787 4.227-4.787 1.032.688 2.267 1.038 3.562.912l.101-.086a3.95 3.95 0 0 0 .04 1.01c-1.515 1.698-1.07 1.996-4.099 2.622-3.065.634-1.265 1.762-.089 2.057 1.425.357 4.723.864 6.95-2.265l-.089.357c.593.477 1.01 3.103.941 5.483s-.117 4.015.351 5.291.934 4.149 4.916 3.293c3.327-.715 5.052-2.569 5.292-5.661.17-2.198.556-1.873.58-3.838l.309-.93c.356-2.98.057-3.941 2.107-3.494l.498.044c1.508.069 3.483-.244 4.642-.784 2.496-1.162 3.976-3.102 1.515-2.592h0" fill="#336791"/><g fill="#fff"><path d="M20.405 15.44c-.506-.071-.964-.005-1.196.171a.44.44 0 0 0-.182.293c-.029.209.117.441.207.56.254.338.625.57.993.621.053.008.106.011.159.011.613 0 1.17-.479 1.219-.832.061-.442-.579-.737-1.2-.824m16.763.014c-.048-.347-.663-.446-1.247-.364s-1.148.346-1.101.693c.038.27.524.732 1.1.732a1.05 1.05 0 0 0 .147-.01c.384-.053.666-.298.8-.439.204-.215.322-.455.3-.611m9.619 14.853c-.214-.649-.903-.858-2.048-.621-3.399.704-4.617.216-5.017-.079 2.642-4.038 4.816-8.919 5.989-13.473.555-2.157.862-4.161.887-5.793.028-1.792-.277-3.109-.904-3.914-2.53-3.243-6.244-4.983-10.739-5.031-3.091-.035-5.702.759-6.208.982a15.43 15.43 0 0 0-3.493-.45c-2.32-.038-4.325.519-5.986 1.655a26.72 26.72 0 0 0-4.864-1.28c-3.941-.636-7.072-.154-9.307 1.434-2.667 1.895-3.898 5.282-3.66 10.068.08 1.61.995 6.563 2.438 11.307 1.9 6.243 3.965 9.777 6.138 10.504a2.74 2.74 0 0 0 .871.145c.793 0 1.764-.358 2.775-1.578a100.26 100.26 0 0 1 3.825-4.342 6.15 6.15 0 0 0 2.752.742l.007.075c-.165.198-.327.398-.485.601-.665.847-.803 1.023-2.944 1.465-.609.126-2.226.46-2.25 1.598-.026 1.242 1.912 1.764 2.132 1.819a9.11 9.11 0 0 0 2.217.288c1.719 0 3.231-.567 4.44-1.663-.037 4.429.147 8.794.677 10.123.434 1.089 1.495 3.749 4.846 3.749a7.75 7.75 0 0 0 1.628-.185c3.497-.752 5.015-2.302 5.603-5.72.314-1.827.854-6.189 1.107-8.528.536.168 1.225.244 1.97.244 1.554 0 3.348-.331 4.472-.855 1.264-.589 3.544-2.033 3.13-3.288h0zm-8.327-15.811c-.011.691-.106 1.318-.207 1.972-.108.704-.22 1.432-.248 2.315-.028.86.079 1.754.183 2.618.209 1.746.424 3.544-.407 5.318a6.91 6.91 0 0 1-.368-.759c-.103-.251-.328-.654-.638-1.213-1.208-2.173-4.037-7.263-2.589-9.34.431-.618 1.526-1.254 4.275-.912h0zM35.127 2.795c4.028.089 7.214 1.601 9.47 4.492 1.73 2.218-.175 12.31-5.69 21.017l-.167-.212-.07-.088c1.425-2.361 1.147-4.697.898-6.769-.102-.85-.198-1.653-.174-2.407.025-.799.131-1.485.233-2.148.125-.817.253-1.662.217-2.658a1.11 1.11 0 0 0 .023-.375c-.09-.955-1.177-3.815-3.394-6.403-1.212-1.416-2.981-3-5.395-4.069a18.15 18.15 0 0 1 4.048-.382h0zM12.588 33.291c-1.114 1.343-1.883 1.086-2.136 1.002-1.648-.551-3.561-4.046-5.247-9.588-1.459-4.795-2.312-9.617-2.379-10.969-.213-4.276.82-7.256 3.071-8.858 3.664-2.606 9.687-1.046 12.107-.255l-.105.102c-3.972 4.023-3.878 10.898-3.868 11.318 0 .162.013.392.032.707.068 1.156.196 3.308-.144 5.745-.316 2.265.38 4.481 1.909 6.081a6.86 6.86 0 0 0 .494.467 102.43 102.43 0 0 0-3.734 4.247h0zm4.244-5.68c-1.232-1.29-1.792-3.084-1.536-4.922.359-2.574.226-4.816.155-6.021l-.024-.433c.58-.516 3.269-1.961 5.186-1.52.875.201 1.408.799 1.63 1.827 1.147 5.323.152 7.541-.648 9.324-.165.367-.321.714-.453 1.073l-.103.278c-.261.702-.504 1.354-.654 1.974-1.31-.004-2.584-.565-3.553-1.579h0zm.201 7.178a3.07 3.07 0 0 1-.928-.4c.169-.079.469-.188.989-.295 2.518-.52 2.907-.887 3.756-1.969.195-.248.415-.529.721-.872h0c.455-.511.663-.425 1.041-.267.306.127.604.512.725.935.057.2.121.58-.089.875-1.774 2.492-4.359 2.46-6.215 1.994h0zM30.212 47.09c-3.081.662-4.171-.915-4.89-2.717-.464-1.164-.692-6.411-.53-12.206a.7.7 0 0 0-.03-.222 2.92 2.92 0 0 0-.086-.409c-.241-.843-.827-1.548-1.53-1.841-.279-.116-.792-.329-1.408-.171.131-.543.359-1.157.607-1.821l.104-.279a16.71 16.71 0 0 1 .418-.987c.837-1.865 1.983-4.42.739-10.191-.466-2.162-2.022-3.217-4.381-2.972-1.414.147-2.708.719-3.353 1.047a10.72 10.72 0 0 0-.384.205c.18-2.178.861-6.248 3.406-8.824 1.603-1.621 3.737-2.422 6.338-2.379 5.124.084 8.41 2.722 10.264 4.92 1.598 1.894 2.463 3.802 2.809 4.831-2.597-.265-4.363.249-5.259 1.533-1.948 2.793 1.066 8.214 2.514 10.82.266.477.495.89.567 1.066.472 1.147 1.082 1.912 1.528 2.471.137.171.269.337.37.482-.787.228-2.199.753-2.071 3.38-.104 1.318-.842 7.49-1.217 9.67-.495 2.881-1.552 3.954-4.523 4.593h0zM43.07 32.33c-.804.374-2.15.655-3.429.716-1.412.066-2.131-.159-2.3-.297-.079-1.637.528-1.808 1.171-1.989a4.94 4.94 0 0 0 .295-.09 2.41 2.41 0 0 0 .195.143c1.135.752 3.16.832 6.018.241l.031-.006c-.386.362-1.045.847-1.98 1.283z"/></g></g><defs><clipPath id="A"><path fill="#fff" d="M0 0h48.333v50H0z"/></clipPath></defs></svg>