<svg xmlns="http://www.w3.org/2000/svg" width="100%" height="100%" fill="none" 
viewBox="0 0 54 50" xmlns:v="https://vecta.io/nano"><g clip-path="url(#A)"><path d="M36.81 34.781c1.96-.2 3.448-1.869 3.38-3.872s-1.758-3.605-3.786-3.605h-.135c-2.096.067-3.718 1.802-3.651 3.872.068 1.002.473 1.869 1.082 2.47-2.299 4.473-5.814 7.744-11.087 10.481-3.583 1.869-7.301 2.537-11.019 2.07-3.042-.401-5.408-1.736-6.896-3.939-2.163-3.271-2.366-6.809-.541-10.348 1.285-2.537 3.312-4.406 4.597-5.341-.27-.868-.676-2.337-.879-3.404-9.803 7.01-8.788 16.489-5.814 20.962 2.231 3.338 6.76 5.407 11.763 5.407 1.352 0 2.704-.134 4.056-.467 8.653-1.669 15.211-6.743 18.929-14.286h0zm11.898-8.278c-5.138-5.942-12.71-9.213-21.363-9.213h-1.082c-.608-1.202-1.893-2.003-3.313-2.003h-.135c-2.095.067-3.718 1.803-3.65 3.872.068 2.003 1.758 3.605 3.786 3.605h.135c1.487-.067 2.772-1.001 3.313-2.27h1.217c5.138 0 10.005 1.469 14.4 4.339 3.38 2.203 5.814 5.074 7.166 8.545 1.149 2.804 1.082 5.541-.135 7.878-1.893 3.538-5.07 5.474-9.262 5.474a17.48 17.48 0 0 1-6.625-1.402c-.744.668-2.096 1.736-3.042 2.404 2.907 1.335 5.882 2.069 8.721 2.069 6.49 0 11.29-3.538 13.115-7.076 1.961-3.872 1.825-10.548-3.245-16.222h0zm-34.343 9.413c.068 2.003 1.758 3.605 3.786 3.605h.135c2.096-.067 3.718-1.802 3.651-3.872-.068-2.003-1.758-3.605-3.786-3.605h-.135c-.135 0-.338 0-.473.067-2.772-4.54-3.921-9.48-3.515-14.82.27-4.006 1.622-7.477 3.989-10.348 1.96-2.47 5.746-3.672 8.315-3.738 7.166-.134 10.208 8.679 10.411 12.217.879.2 2.366.668 3.38 1.001C39.311 5.608 32.551 0 26.061 0c-6.084 0-11.696 4.339-13.927 10.748-3.11 8.545-1.082 16.756 2.704 23.232-.338.467-.541 1.202-.473 1.936h0z" fill="#764abc"/></g><defs><clipPath id="A"><path fill="#fff" d="M0 0h53.125v50H0z"/></clipPath></defs></svg>