<svg width="312" height="63" viewBox="0 0 312 63" fill="none" xmlns="http://www.w3.org/2000/svg">
<g clip-path="url(#clip0)">
<path d="M10.816 37.48C8.768 37.48 6.928 36.872 5.296 35.656C3.696 34.44 2.496 32.824 1.696 30.808C1.632 30.616 1.6 30.456 1.6 30.328C1.6 30.072 1.696 29.864 1.888 29.704C2.08 29.544 2.304 29.464 2.56 29.464C2.976 29.464 3.28 29.672 3.472 30.088C4.08 31.72 5.04 33.048 6.352 34.072C7.664 35.064 9.152 35.56 10.816 35.56C13.28 35.56 15.248 34.824 16.72 33.352C18.192 31.88 18.928 29.912 18.928 27.448V4.36C18.928 4.104 19.024 3.88 19.216 3.688C19.408 3.496 19.664 3.4 19.984 3.4C20.272 3.4 20.496 3.496 20.656 3.688C20.848 3.88 20.944 4.104 20.944 4.36V27.448C20.944 29.432 20.512 31.192 19.648 32.728C18.816 34.232 17.632 35.4 16.096 36.232C14.56 37.064 12.8 37.48 10.816 37.48ZM49.366 13.048C49.654 13.048 49.878 13.144 50.038 13.336C50.23 13.528 50.326 13.752 50.326 14.008V36.04C50.326 36.296 50.23 36.52 50.038 36.712C49.846 36.904 49.622 37 49.366 37C49.078 37 48.838 36.904 48.646 36.712C48.486 36.52 48.406 36.296 48.406 36.04V31.72C47.606 33.352 46.374 34.728 44.71 35.848C43.046 36.936 41.206 37.48 39.19 37.48C37.078 37.48 35.174 36.936 33.478 35.848C31.782 34.728 30.454 33.208 29.494 31.288C28.534 29.336 28.054 27.16 28.054 24.76C28.054 22.392 28.534 20.264 29.494 18.376C30.486 16.456 31.83 14.968 33.526 13.912C35.222 12.824 37.11 12.28 39.19 12.28C41.27 12.28 43.142 12.824 44.806 13.912C46.47 15 47.67 16.456 48.406 18.28V14.008C48.406 13.752 48.486 13.528 48.646 13.336C48.838 13.144 49.078 13.048 49.366 13.048ZM39.286 35.656C41.046 35.656 42.63 35.192 44.038 34.264C45.478 33.304 46.598 31.992 47.398 30.328C48.198 28.664 48.598 26.808 48.598 24.76C48.598 22.808 48.198 21.016 47.398 19.384C46.598 17.752 45.478 16.472 44.038 15.544C42.63 14.584 41.046 14.104 39.286 14.104C37.526 14.104 35.926 14.568 34.486 15.496C33.078 16.392 31.974 17.656 31.174 19.288C30.374 20.888 29.974 22.712 29.974 24.76C29.974 26.808 30.374 28.664 31.174 30.328C31.974 31.992 33.078 33.304 34.486 34.264C35.894 35.192 37.494 35.656 39.286 35.656ZM77.0969 35.32C77.2889 35.512 77.3849 35.752 77.3849 36.04C77.3849 36.328 77.2569 36.568 77.0009 36.76C76.7769 36.92 76.5849 37 76.4249 37C76.1689 37 75.9289 36.888 75.7049 36.664L64.4729 24.712L60.4409 28.072V36.04C60.4409 36.296 60.3449 36.52 60.1529 36.712C59.9929 36.904 59.7689 37 59.4809 37C59.1929 37 58.9529 36.904 58.7609 36.712C58.6009 36.52 58.5209 36.296 58.5209 36.04V2.44C58.5209 2.184 58.6009 1.96 58.7609 1.768C58.9529 1.576 59.1929 1.48 59.4809 1.48C59.7689 1.48 59.9929 1.576 60.1529 1.768C60.3449 1.96 60.4409 2.184 60.4409 2.44V25.672L75.5129 13.048C75.7049 12.856 75.9129 12.76 76.1369 12.76C76.3929 12.76 76.6169 12.856 76.8089 13.048C77.0009 13.24 77.0969 13.48 77.0969 13.768C77.0969 14.056 76.9849 14.296 76.7609 14.488L65.9609 23.464L77.0969 35.32ZM104.359 24.904C104.359 27.272 103.847 29.416 102.823 31.336C101.799 33.224 100.375 34.728 98.5506 35.848C96.7586 36.936 94.7586 37.48 92.5506 37.48C90.3426 37.48 88.3266 36.936 86.5026 35.848C84.7106 34.728 83.2866 33.208 82.2306 31.288C81.2066 29.368 80.6946 27.24 80.6946 24.904C80.6946 22.536 81.2066 20.392 82.2306 18.472C83.2866 16.552 84.7106 15.048 86.5026 13.96C88.2946 12.84 90.3106 12.28 92.5506 12.28C94.7586 12.28 96.7586 12.84 98.5506 13.96C100.375 15.048 101.799 16.552 102.823 18.472C103.847 20.392 104.359 22.536 104.359 24.904ZM102.439 24.904C102.439 22.856 102.007 21.016 101.143 19.384C100.311 17.752 99.1426 16.472 97.6386 15.544C96.1346 14.584 94.4386 14.104 92.5506 14.104C90.6946 14.104 88.9986 14.584 87.4626 15.544C85.9586 16.472 84.7746 17.752 83.9106 19.384C83.0466 21.016 82.6146 22.856 82.6146 24.904C82.6146 26.92 83.0466 28.744 83.9106 30.376C84.7746 32.008 85.9586 33.304 87.4626 34.264C88.9986 35.192 90.6946 35.656 92.5506 35.656C94.4386 35.656 96.1346 35.192 97.6386 34.264C99.1426 33.336 100.311 32.056 101.143 30.424C102.007 28.76 102.439 26.92 102.439 24.904ZM121.776 12.28C123.888 12.28 125.792 12.824 127.488 13.912C129.184 14.968 130.512 16.456 131.472 18.376C132.432 20.264 132.912 22.392 132.912 24.76C132.912 27.128 132.416 29.288 131.424 31.24C130.464 33.16 129.136 34.68 127.44 35.8C125.744 36.92 123.856 37.48 121.776 37.48C119.888 37.48 118.144 36.984 116.544 35.992C114.944 34.968 113.616 33.56 112.56 31.768V36.04C112.56 36.296 112.464 36.52 112.272 36.712C112.112 36.904 111.888 37 111.6 37C111.344 37 111.12 36.904 110.928 36.712C110.736 36.52 110.64 36.296 110.64 36.04V2.488C110.64 2.232 110.72 2.008 110.88 1.816C111.072 1.624 111.312 1.528 111.6 1.528C111.888 1.528 112.112 1.624 112.272 1.816C112.464 2.008 112.56 2.232 112.56 2.488V18.136C113.52 16.248 114.8 14.808 116.4 13.816C118.032 12.792 119.824 12.28 121.776 12.28ZM121.68 35.656C123.44 35.656 125.024 35.176 126.432 34.216C127.84 33.256 128.944 31.96 129.744 30.328C130.576 28.664 130.992 26.808 130.992 24.76C130.992 22.712 130.576 20.888 129.744 19.288C128.944 17.656 127.84 16.392 126.432 15.496C125.024 14.568 123.44 14.104 121.68 14.104C119.888 14.104 118.272 14.568 116.832 15.496C115.424 16.392 114.32 17.656 113.52 19.288C112.752 20.888 112.368 22.712 112.368 24.76C112.368 26.808 112.768 28.664 113.568 30.328C114.368 31.992 115.472 33.304 116.88 34.264C118.288 35.192 119.888 35.656 121.68 35.656ZM177.373 20.44C177.661 20.44 177.885 20.536 178.045 20.728C178.237 20.92 178.333 21.144 178.333 21.4V33.448C178.333 33.832 178.189 34.12 177.901 34.312C176.429 35.304 174.813 36.088 173.053 36.664C171.325 37.208 169.565 37.48 167.773 37.48C164.477 37.48 161.517 36.744 158.893 35.272C156.301 33.768 154.253 31.704 152.749 29.08C151.277 26.456 150.541 23.496 150.541 20.2C150.541 16.904 151.277 13.944 152.749 11.32C154.253 8.696 156.301 6.648 158.893 5.176C161.517 3.672 164.477 2.92 167.773 2.92C169.565 2.92 171.261 3.144 172.861 3.592C174.493 4.008 175.949 4.648 177.229 5.512C177.517 5.704 177.661 5.976 177.661 6.328C177.661 6.616 177.549 6.856 177.325 7.048C177.133 7.208 176.941 7.288 176.749 7.288C176.589 7.288 176.381 7.224 176.125 7.096C173.437 5.592 170.653 4.84 167.773 4.84C164.829 4.84 162.205 5.496 159.901 6.808C157.597 8.12 155.789 9.944 154.477 12.28C153.197 14.616 152.557 17.256 152.557 20.2C152.557 23.144 153.197 25.784 154.477 28.12C155.789 30.456 157.597 32.28 159.901 33.592C162.205 34.904 164.829 35.56 167.773 35.56C169.245 35.56 170.733 35.336 172.237 34.888C173.773 34.408 175.165 33.784 176.413 33.016V22.36H167.773C167.517 22.36 167.293 22.264 167.101 22.072C166.909 21.88 166.813 21.656 166.813 21.4C166.813 21.112 166.909 20.888 167.101 20.728C167.293 20.536 167.517 20.44 167.773 20.44H177.373ZM205.741 13.048C206.029 13.048 206.253 13.144 206.413 13.336C206.605 13.528 206.701 13.752 206.701 14.008V36.04C206.701 36.296 206.605 36.52 206.413 36.712C206.221 36.904 205.997 37 205.741 37C205.453 37 205.213 36.904 205.021 36.712C204.861 36.52 204.781 36.296 204.781 36.04V31.72C203.981 33.352 202.749 34.728 201.085 35.848C199.421 36.936 197.581 37.48 195.565 37.48C193.453 37.48 191.549 36.936 189.853 35.848C188.157 34.728 186.829 33.208 185.869 31.288C184.909 29.336 184.429 27.16 184.429 24.76C184.429 22.392 184.909 20.264 185.869 18.376C186.861 16.456 188.205 14.968 189.901 13.912C191.597 12.824 193.485 12.28 195.565 12.28C197.645 12.28 199.517 12.824 201.181 13.912C202.845 15 204.045 16.456 204.781 18.28V14.008C204.781 13.752 204.861 13.528 205.021 13.336C205.213 13.144 205.453 13.048 205.741 13.048ZM195.661 35.656C197.421 35.656 199.005 35.192 200.413 34.264C201.853 33.304 202.973 31.992 203.773 30.328C204.573 28.664 204.973 26.808 204.973 24.76C204.973 22.808 204.573 21.016 203.773 19.384C202.973 17.752 201.853 16.472 200.413 15.544C199.005 14.584 197.421 14.104 195.661 14.104C193.901 14.104 192.301 14.568 190.861 15.496C189.453 16.392 188.349 17.656 187.549 19.288C186.749 20.888 186.349 22.712 186.349 24.76C186.349 26.808 186.749 28.664 187.549 30.328C188.349 31.992 189.453 33.304 190.861 34.264C192.269 35.192 193.869 35.656 195.661 35.656ZM232.283 13.048C232.571 13.048 232.795 13.144 232.955 13.336C233.147 13.528 233.243 13.752 233.243 14.008V27.976C233.243 31.016 232.379 33.336 230.651 34.936C228.955 36.504 226.635 37.288 223.691 37.288C220.747 37.288 218.427 36.504 216.731 34.936C215.035 33.336 214.187 31.016 214.187 27.976V14.008C214.187 13.752 214.283 13.528 214.475 13.336C214.667 13.144 214.891 13.048 215.147 13.048C215.435 13.048 215.659 13.144 215.819 13.336C216.011 13.528 216.107 13.752 216.107 14.008V27.976C216.107 30.376 216.779 32.232 218.123 33.544C219.467 34.824 221.323 35.464 223.691 35.464C226.091 35.464 227.963 34.824 229.307 33.544C230.651 32.232 231.323 30.376 231.323 27.976V14.008C231.323 13.752 231.403 13.528 231.563 13.336C231.755 13.144 231.995 13.048 232.283 13.048ZM250.93 13.336C251.186 13.336 251.394 13.432 251.554 13.624C251.746 13.784 251.842 13.992 251.842 14.248C251.842 14.504 251.746 14.728 251.554 14.92C251.394 15.08 251.186 15.16 250.93 15.16H245.266V36.04C245.266 36.296 245.17 36.52 244.978 36.712C244.786 36.904 244.562 37 244.306 37C244.018 37 243.778 36.904 243.586 36.712C243.426 36.52 243.346 36.296 243.346 36.04V15.16H239.506C239.282 15.16 239.074 15.064 238.882 14.872C238.69 14.68 238.594 14.472 238.594 14.248C238.594 13.96 238.674 13.736 238.834 13.576C239.026 13.416 239.25 13.336 239.506 13.336H243.346V7.48C243.346 5.592 243.842 4.168 244.834 3.208C245.858 2.216 247.154 1.72 248.722 1.72C249.522 1.72 250.274 1.832 250.978 2.056C251.714 2.248 252.082 2.584 252.082 3.064C252.082 3.32 251.986 3.544 251.794 3.736C251.602 3.928 251.394 4.024 251.17 4.024C250.914 4.024 250.578 3.944 250.162 3.784C249.426 3.56 248.882 3.448 248.53 3.448C247.538 3.448 246.738 3.784 246.13 4.456C245.554 5.128 245.266 6.136 245.266 7.48V13.336H250.93ZM266.866 13.336C267.122 13.336 267.33 13.432 267.49 13.624C267.682 13.784 267.778 13.992 267.778 14.248C267.778 14.504 267.682 14.728 267.49 14.92C267.33 15.08 267.122 15.16 266.866 15.16H261.202V36.04C261.202 36.296 261.106 36.52 260.914 36.712C260.722 36.904 260.498 37 260.242 37C259.954 37 259.714 36.904 259.522 36.712C259.362 36.52 259.282 36.296 259.282 36.04V15.16H255.442C255.218 15.16 255.01 15.064 254.818 14.872C254.626 14.68 254.53 14.472 254.53 14.248C254.53 13.96 254.61 13.736 254.77 13.576C254.962 13.416 255.186 13.336 255.442 13.336H259.282V7.48C259.282 5.592 259.778 4.168 260.77 3.208C261.794 2.216 263.09 1.72 264.658 1.72C265.458 1.72 266.21 1.832 266.914 2.056C267.65 2.248 268.018 2.584 268.018 3.064C268.018 3.32 267.922 3.544 267.73 3.736C267.538 3.928 267.33 4.024 267.106 4.024C266.85 4.024 266.514 3.944 266.098 3.784C265.362 3.56 264.818 3.448 264.466 3.448C263.474 3.448 262.674 3.784 262.066 4.456C261.49 5.128 261.202 6.136 261.202 7.48V13.336H266.866ZM275.026 36.04C275.026 36.296 274.93 36.52 274.738 36.712C274.546 36.904 274.322 37 274.066 37C273.778 37 273.538 36.904 273.346 36.712C273.186 36.52 273.106 36.296 273.106 36.04V13.24C273.106 12.984 273.202 12.76 273.394 12.568C273.586 12.376 273.81 12.28 274.066 12.28C274.354 12.28 274.578 12.376 274.738 12.568C274.93 12.76 275.026 12.984 275.026 13.24V36.04ZM274.066 9.016C273.554 9.016 273.138 8.872 272.818 8.584C272.53 8.296 272.386 7.928 272.386 7.48V7.096C272.386 6.648 272.546 6.28 272.866 5.992C273.186 5.704 273.602 5.56 274.114 5.56C274.562 5.56 274.93 5.704 275.218 5.992C275.538 6.28 275.698 6.648 275.698 7.096V7.48C275.698 7.928 275.538 8.296 275.218 8.584C274.93 8.872 274.546 9.016 274.066 9.016ZM293.896 12.28C296.744 12.28 298.888 13.128 300.328 14.824C301.768 16.488 302.488 18.664 302.488 21.352V36.04C302.488 36.296 302.392 36.52 302.2 36.712C302.008 36.904 301.784 37 301.528 37C301.24 37 301 36.904 300.808 36.712C300.648 36.52 300.568 36.296 300.568 36.04V21.544C300.568 19.368 299.992 17.592 298.84 16.216C297.72 14.808 296.008 14.104 293.704 14.104C292.296 14.104 290.904 14.44 289.528 15.112C288.184 15.784 287.08 16.696 286.216 17.848C285.352 19 284.92 20.232 284.92 21.544V36.04C284.92 36.296 284.824 36.52 284.632 36.712C284.44 36.904 284.216 37 283.96 37C283.672 37 283.432 36.904 283.24 36.712C283.08 36.52 283 36.296 283 36.04V14.008C283 13.752 283.096 13.528 283.288 13.336C283.48 13.144 283.704 13.048 283.96 13.048C284.248 13.048 284.472 13.144 284.632 13.336C284.824 13.528 284.92 13.752 284.92 14.008V17.224C285.848 15.784 287.144 14.6 288.808 13.672C290.504 12.744 292.2 12.28 293.896 12.28Z" fill="#F2E8DF"/>
<path d="M2 55.1655C22.8027 49.566 79.6057 49.6572 128.963 55.1655C223.249 65.6877 272.286 60.5103 310 51.2176" stroke="#F2E8DF" stroke-width="2"/>
</g>
<defs>
<clipPath id="clip0">
<rect width="312" height="63" fill="white"/>
</clipPath>
</defs>
</svg>
