<svg width="100%" height="100%" viewBox="0 0 28 28" fill="currentColor" xmlns="http://www.w3.org/2000/svg">
<path d="M27.125 0.895811C26.9322 0.702679 26.7033 0.549455 26.4513 0.44491C26.1992 0.340365 25.9291 0.286552 25.6562 0.286552C25.3834 0.286552 25.1132 0.340365 24.8612 0.44491C24.6091 0.549455 24.3802 0.702679 24.1875 0.895811L14 11.0625L3.81248 0.874977C3.6196 0.682098 3.39062 0.529098 3.13861 0.424713C2.8866 0.320327 2.6165 0.266602 2.34373 0.266602C2.07096 0.266602 1.80085 0.320327 1.54885 0.424713C1.29684 0.529098 1.06786 0.682098 0.874977 0.874977C0.682098 1.06786 0.529098 1.29684 0.424713 1.54885C0.320327 1.80085 0.266602 2.07096 0.266602 2.34373C0.266602 2.6165 0.320327 2.8866 0.424713 3.13861C0.529098 3.39062 0.682098 3.6196 0.874977 3.81248L11.0625 14L0.874977 24.1875C0.682098 24.3804 0.529098 24.6093 0.424713 24.8613C0.320327 25.1134 0.266602 25.3834 0.266602 25.6562C0.266602 25.929 0.320327 26.1991 0.424713 26.4511C0.529098 26.7031 0.682098 26.9321 0.874977 27.125C1.06786 27.3178 1.29684 27.4709 1.54885 27.5752C1.80085 27.6796 2.07096 27.7333 2.34373 27.7333C2.6165 27.7333 2.8866 27.6796 3.13861 27.5752C3.39062 27.4709 3.6196 27.3178 3.81248 27.125L14 16.9375L24.1875 27.125C24.3804 27.3178 24.6093 27.4709 24.8613 27.5752C25.1134 27.6796 25.3834 27.7333 25.6562 27.7333C25.929 27.7333 26.1991 27.6796 26.4511 27.5752C26.7031 27.4709 26.9321 27.3178 27.125 27.125C27.3178 26.9321 27.4709 26.7031 27.5752 26.4511C27.6796 26.1991 27.7333 25.929 27.7333 25.6562C27.7333 25.3834 27.6796 25.1134 27.5752 24.8613C27.4709 24.6093 27.3178 24.3804 27.125 24.1875L16.9375 14L27.125 3.81248C27.9166 3.02081 27.9166 1.68748 27.125 0.895811V0.895811Z" fill="currentColor"/>
</svg>
