<svg xmlns="http://www.w3.org/2000/svg"
viewBox="0 0 50 50" width="100%" height="100%" fill="currentColor"  xmlns:v="https://vecta.io/nano"><path fill-rule="evenodd" d="M15.169 12.956c.146.145.261.318.34.507s.119.393.119.599-.041.409-.119.599a1.56 1.56 0 0 1-.34.507L5.334 25l9.834 9.831c.293.293.458.691.458 1.106s-.165.813-.458 1.106-.691.458-1.106.458-.813-.165-1.106-.458L2.019 26.106A1.56 1.56 0 0 1 1.56 25c0-.206.041-.409.119-.599s.194-.362.34-.507l10.937-10.937c.145-.146.318-.261.507-.34s.393-.119.599-.119a1.56 1.56 0 0 1 1.106.459h0zm19.663 0c-.146.145-.261.318-.34.507a1.56 1.56 0 0 0 0 1.198 1.56 1.56 0 0 0 .34.507L44.666 25l-9.834 9.831c-.145.145-.261.318-.339.508s-.119.393-.119.599.041.409.119.599.194.362.339.508.318.261.508.339.393.119.599.119.409-.04.599-.119.362-.194.508-.339l10.938-10.937a1.56 1.56 0 0 0 .34-.507c.079-.19.119-.393.119-.599s-.041-.409-.119-.599-.194-.362-.34-.507L37.044 12.956a1.56 1.56 0 0 0-1.106-.459c-.206 0-.409.041-.599.119s-.362.194-.507.34h0zm-3.122-9.762c.396.122.726.397.92.763s.233.794.111 1.19l-12.5 40.625a1.56 1.56 0 0 1-.771.877c-.36.182-.777.217-1.163.098s-.711-.382-.907-.736-.247-.768-.144-1.159l12.5-40.625a1.56 1.56 0 0 1 1.953-1.031v-.003z" fill="currentColor"/></svg>