<svg xmlns="http://www.w3.org/2000/svg" width="100%" height="100%" viewBox="0 0 50 50" fill="none"  xmlns:v="https://vecta.io/nano"><g clip-path="url(#A)"><path d="M34.18 11.825a2.17 2.17 0 0 0-.57.074v.025h.025c.114.211.302.375.447.57l.317.667.033-.033c.195-.139.294-.358.294-.692-.081-.098-.098-.203-.17-.294-.081-.139-.261-.211-.375-.317zM12.02 39.314h-1.928l-.561-9.188h-.016l-2.938 9.188H5.105l-2.914-9.188h-.025l-.406 9.188H.002c.095-3.853.38-7.699.855-11.523h2.392l2.783 8.464h.016l2.808-8.464h2.278c.505 4.2.806 8.041.895 11.523h-.008zm8.366-8.503c-.781 4.264-1.823 7.366-3.1 9.294-1.009 1.489-2.108 2.237-3.305 2.237-.317 0-.708-.098-1.18-.294v-1.025c.236.033.505.056.806.056.561 0 1.009-.163 1.352-.464.406-.375.611-.797.611-1.261 0-.325-.155-.977-.48-1.969l-2.108-6.575h1.897l1.514 4.916c.342 1.123.489 1.897.423 2.344.837-2.214 1.416-4.639 1.742-7.259h1.827zm25.683 8.503h-5.484V27.791h1.847v10.108h3.638v1.416zm-6.917.278l-2.116-1.042a4.05 4.05 0 0 0 .53-.52c.903-1.05 1.352-2.62 1.352-4.687 0-3.817-1.497-5.72-4.492-5.72-1.466 0-2.612.48-3.434 1.448-.895 1.058-1.352 2.62-1.352 4.68 0 2.027.398 3.508 1.197 4.459.733.847 1.831 1.278 3.305 1.278.545 0 1.05-.066 1.506-.203l2.759 1.611.756-1.301-.011-.002zm-6.859-2.589c-.472-.748-.7-1.953-.7-3.614 0-2.905.88-4.353 2.645-4.353.92 0 1.603.35 2.034 1.042.464.756.7 1.945.7 3.589 0 2.922-.887 4.395-2.645 4.395-.928 0-1.603-.35-2.042-1.042l.008-.017zm-3.452-.878c0 .977-.358 1.783-1.083 2.4-.716.627-1.669.944-2.881.944-1.131 0-2.214-.358-3.28-1.075l.497-.992c.911.456 1.733.684 2.483.684.692 0 1.238-.155 1.628-.456.391-.309.627-.741.627-1.286 0-.684-.48-1.27-1.352-1.758l-2.425-1.367c-.88-.642-1.311-1.327-1.311-2.458 0-.936.325-1.684.977-2.255.659-.586 1.497-.87 2.539-.87 1.037-.009 2.053.288 2.922.855l-.447.992a5.66 5.66 0 0 0-2.214-.48c-.594 0-1.05.147-1.367.431s-.512.642-.512 1.091c0 .684.489 1.27 1.383 1.773a183.52 183.52 0 0 1 2.473 1.392c.903.634 1.352 1.319 1.352 2.433l-.008.002zm19.541-12.198c-1.116-.025-1.978.089-2.702.398-.203.081-.537.081-.57.342.114.114.13.294.228.447.17.277.456.652.725.847.294.228.586.456.888.652.545.334 1.156.53 1.692.863.302.195.611.447.911.652.155.106.252.294.447.358v-.041c-.098-.122-.122-.302-.22-.447-.139-.139-.276-.261-.416-.398a6.58 6.58 0 0 0-1.448-1.408c-.447-.302-1.424-.725-1.603-1.238l-.025-.033c.302-.025.659-.139.952-.22.472-.122.911-.098 1.4-.22.224-.058.447-.123.667-.195v-.122c-.252-.252-.439-.594-.7-.83a18.2 18.2 0 0 0-2.295-1.709c-.439-.284-.992-.464-1.456-.7-.163-.081-.447-.122-.538-.261-.252-.309-.398-.708-.578-1.075a37.13 37.13 0 0 1-1.139-2.425c-.252-.545-.398-1.083-.708-1.588-1.433-2.369-2.995-3.8-5.388-5.208-.513-.294-1.131-.416-1.783-.57l-1.042-.056c-.228-.098-.447-.358-.642-.489-.797-.505-2.848-1.587-3.427-.155-.375.911.553 1.798.88 2.255.236.325.537.684.708 1.042.098.244.122.497.22.748.22.611.431 1.294.725 1.864.155.294.317.601.513.863.114.155.309.22.35.472-.195.284-.211.7-.317 1.042-.505 1.578-.309 3.524.398 4.688.228.35.756 1.116 1.466.822.627-.252.489-1.042.667-1.742.041-.17.016-.276.099-.391v.033c.203.391.398.766.578 1.156.423.684 1.18 1.392 1.806 1.864.334.252.594.684 1.009.837v-.041h-.033c-.089-.122-.203-.18-.317-.277a7.81 7.81 0 0 1-.733-.837 18.48 18.48 0 0 1-1.555-2.531c-.22-.438-.421-.886-.602-1.342-.081-.163-.081-.416-.22-.497-.211.302-.52.561-.667.944-.269.594-.294 1.334-.398 2.1-.048.016-.025 0-.048.033-.447-.114-.602-.57-.766-.961-.423-.992-.489-2.58-.13-3.719.098-.294.513-1.212.35-1.489-.089-.269-.366-.423-.513-.634-.187-.261-.375-.594-.505-.888-.334-.781-.497-1.644-.863-2.425-.162-.358-.456-.733-.692-1.066-.269-.375-.561-.642-.766-1.083-.073-.155-.17-.406-.056-.57.025-.114.081-.155.195-.187.18-.155.7.041.88.13.513.203.944.398 1.375.692.195.139.406.398.659.472h.294c.447.098.944.025 1.359.155.741.236 1.408.578 2.009.952a12.44 12.44 0 0 1 4.337 4.769c.17.317.244.611.398.944.284.692.652 1.383.944 2.042s.57 1.327.992 1.872c.211.294 1.042.447 1.423.594.277.13.708.244.952.391.48.294.952.627 1.4.951.228.155.92.505.961.781l.002.003z" fill="#000"/></g><defs><clipPath id="A"><path fill="#fff" d="M0 0h50v50H0z"/></clipPath></defs></svg>