<svg xmlns="http://www.w3.org/2000/svg"
viewBox="0 0 84 50" width="100%" height="100%" fill="black"  xmlns:v="https://vecta.io/nano"><g clip-path="url(#A)"><path d="M19.619 13.036h15.682v1.242H21.056v9.347h13.395v1.242H21.056V35.13h14.408v1.242H19.619V13.036zm17.087 0h1.666l7.384 10.263 7.547-10.263L63.568 0 46.703 24.377l8.691 11.995h-1.732l-7.906-10.916-7.939 10.916h-1.699l8.756-11.995-8.168-11.341zm19.308 1.242v-1.242h17.871v1.242h-8.233v22.094h-1.437V14.278h-8.2zM0 13.036h1.797l24.778 36.945-10.239-13.61L1.503 14.801l-.065 21.571H0V13.036zm73.741 21.719c-.294 0-.514-.227-.514-.52s.22-.52.514-.52.514.227.514.52-.217.52-.514.52zm1.413-1.367h.769c.01.415.314.694.762.694.5 0 .783-.3.783-.862v-3.558h.783v3.562c0 1.012-.587 1.594-1.559 1.594-.913 0-1.538-.565-1.538-1.43h0zm4.122-.045h.776c.066.478.535.781 1.21.781.629 0 1.091-.324 1.091-.771 0-.384-.294-.614-.962-.771l-.65-.157c-.913-.213-1.328-.652-1.328-1.392 0-.896.734-1.493 1.835-1.493 1.024 0 1.773.596 1.818 1.444h-.762c-.073-.464-.479-.753-1.066-.753-.619 0-1.031.297-1.031.75 0 .359.266.565.923.719l.556.136c1.035.241 1.462.659 1.462 1.416 0 .963-.748 1.566-1.944 1.566-1.119 0-1.871-.576-1.927-1.476h0z" fill="black"/></g><defs><clipPath id="A"><path fill="black" d="M0 0h83.146v50H0z"/></clipPath></defs></svg>