<svg xmlns="http://www.w3.org/2000/svg" width="100%" height="100%" fill="none"
viewBox="0 0 53 50" xmlns:v="https://vecta.io/nano"><path d="M5.747 9.845c-.211.045-.382.156-.528.356-.152.217-.205.573-.127.808.066.206.424.623.816.907l-1.504 2.061C1.765 17.797.219 21.292.023 23.812c-.106 1.362.158 2.315.785 3.055.464.546 1.007.856 1.882 1.042.717.153 1.816.145 2.924-.024-.697 1-1.692 2.532-2.205 3.405-.847 1.449-1.714 3.301-2.04 4.36-.574 1.847-.648 3.364-.265 4.811.234.889.61 1.603 1.122 2.151.521.558 1.183.948 1.993 1.167 1.327.359 3.275.257 5.734-.322.518-.12 1.314-.343 1.907-.519-.529 1.851-.47 3.541.124 4.753.192.39.729 1.047 1.05 1.289 1.919 1.432 5.952 1.379 11.364-.319a76.68 76.68 0 0 0 2.266-.78c.417.557.805.776 1.705.884.586.064 1.066-.03 1.522-.292.208-.121.331-.239.4-.35a.63.63 0 0 0 .056-.587.66.66 0 0 0-.379-.419c-.112-.05-.276-.086-.542-.106-.208-.014-.281-.022-.392-.101l.034-.029c.947-.401 2.993-1.423 4.256-2.126 4.617-2.576 9.551-6.206 12.837-9.447 2.977-2.934 5.863-6.595 6.459-8.164.181-.47.23-.959.154-1.339-.064-.297-.1-.378-.387-.72-.303-.361-.367-.395-.646-.506-.931-.366-2.369.038-5.203 1.768-3.625 2.213-9.006 6.323-12.796 9.781-3.734 3.402-6.187 6.375-7.097 8.556-.11.263-.106.386-.163.416s-.563.229-1.117.447c-3.056 1.186-5.72 1.867-7.709 1.954-.549.025-1.425-.035-1.858-.128-.363-.078-.809-.253-.978-.414-.21-.196-.293-.524-.307-.937-.018-.521.087-1.172.307-1.929.151-.511.679-1.832.943-2.346l.619-.334c3.334-1.261 7.108-3.087 10.641-5.148 4.773-2.785 10.267-6.647 15.187-10.684 2.931-2.406 4.507-3.923 6.001-5.77 1.167-1.441 2.111-3.064 2.327-3.969.156-.643.135-1.219-.035-1.704-.179-.511-.524-.931-1.029-1.227-1.315-.771-3.698-.467-6.919.985-3.046 1.373-6.853 3.741-11.155 6.985-2.57 1.934-6.168 4.927-8.07 6.708-4.853 4.552-8.177 8.51-10.021 11.918l-.125.233c-1.631.614-4.15 1.325-5.411 1.54-1.052.176-2.066.223-2.663.106-.369-.072-.65-.19-.856-.401-.214-.22-.344-.532-.44-.948-.145-.651-.102-1.722.092-2.514.6-2.443 2.579-5.952 5.599-9.977l.656-.871.676-.262c4.475-1.718 10.032-4.81 14.959-8.327 2.732-1.951 5.668-4.373 7.663-6.324 1.586-1.55 2.853-2.978 3.832-4.313.862-1.181 1.405-2.179 1.649-3.027.272-.945.187-1.72-.204-2.375-.299-.501-.753-.837-1.327-.994-.526-.143-1.161-.133-1.873.057-2.065.559-5.144 2.407-9.544 5.761-1.094.838-4.703 3.866-5.78 4.85-4.495 4.122-8.478 8.334-11.851 12.528l-.638.794-.358.106c-1.038.306-2.231.532-3.075.583-.494.03-1.148-.039-1.433-.169a.47.47 0 0 1-.262-.204c-.154-.212-.191-.416-.203-.824-.063-1.779 1.169-4.788 3.214-7.979.815-1.263 1.694-2.483 2.634-3.655l.462-.579c1.466-.455 2.921-1.378 5.112-3.216 2.516-2.117 4.977-4.781 5.66-5.699.798-1.072 1.104-2.137.97-2.557-.088-.261-.258-.486-.485-.643a1.15 1.15 0 0 0-.765-.207c-.387.039-1.272.512-2.448 1.368-.833.603-3.145 2.51-4.156 3.429-1.846 1.671-3.064 2.895-4.585 4.603l-.481.537a2.31 2.31 0 0 1-1.135-.047c-.268-.077-.476-.087-.645-.051h0zm18.381 2.272c1.28-1.111 1.82-1.559 3.579-2.976 2.124-1.709 4.46-3.33 6.173-4.285.839-.469 1.626-.84 2.238-.963a9.04 9.04 0 0 1-.593 1.023c-1.141 1.71-2.876 3.655-5.48 6.143-.785.754-4.708 4.04-5.686 4.771-3.299 2.458-6.341 4.416-9.468 6.089l-1.334.69a115.75 115.75 0 0 1 10.572-10.491h0zm16.383 6.184c3.305-1.997 6.127-3.165 7.465-3.228-.031.113-.078.251-.131.374-.522 1.234-1.989 3.033-4.082 5.036-.862.823-4.227 3.63-5.795 4.836-7.509 5.755-13.672 9.631-19.665 12.348 1.05-1.421 2.526-3.168 3.921-4.632 2.622-2.752 5.837-5.666 9.05-8.199 3.574-2.82 6.43-4.838 9.237-6.535h0zm1.994 14.452c2.454-1.92 4.647-3.457 6.266-4.403l-.462.604c-2.583 3.275-5.672 6.211-9.528 9.048-2.263 1.664-4.607 3.183-6.886 4.457 1.312-1.51 2.974-3.162 5.237-5.213a240.87 240.87 0 0 1 5.373-4.493z" fill="#1B1A22"/><path d="M24.357 40.026a14.33 14.33 0 0 0 14.312-14.34 14.33 14.33 0 0 0-14.312-14.34 14.33 14.33 0 0 0-14.312 14.34 14.33 14.33 0 0 0 14.312 14.34z" fill="url(#A)"/><defs><radialGradient id="A" cx="0" cy="0" r="1" gradientUnits="userSpaceOnUse" gradientTransform="translate(-28.6444 36.0964) rotate(54.603) scale(18.3008 18.3477)"><stop offset="1" stop-color="#fff" stop-opacity=".904"/><stop offset="1" stop-color="#ff6d6d"/></radialGradient></defs></svg>