<svg xmlns="http://www.w3.org/2000/svg" width="100%" height="100%" fill="none" 
viewBox="0 0 50 50" xmlns:v="https://vecta.io/nano"><path d="M25.267 29.219c-.751.345-1.575.795-3.223 1.7l-1.886 1.034-.128-.139c-3.261-3.484-9.292-5.945-9.036-10.625.095-1.705.681-6.18 11.583-11.614 8.972-4.422 16.111-3.197 17.344-.48 1.772 3.873-3.827 11.081-13.092 12.127-1.025.208-2.085.183-3.099-.074s-1.958-.737-2.762-1.408c-.491-.533-.564-.564-.745-.458-.298.156-.106.639 0 .916a5.47 5.47 0 0 0 3.345 2.631 17.81 17.81 0 0 0 10.869-1.077c5.616-2.173 10-8.216 8.716-13.281-1.289-5.136-9.814-6.83-17.88-3.964-5.051 1.702-9.718 4.382-13.734 7.886-4.444 4.156-5.147 7.769-4.859 9.281 1.034 5.37 8.438 8.866 11.406 11.455l-.405.223c-1.481.736-7.128 3.688-8.536 6.809-1.598 3.538.256 6.073 1.481 6.414 1.846.442 3.784.297 5.544-.416s3.252-1.957 4.27-3.559c.864-1.329 1.395-2.846 1.547-4.424s-.079-3.169-.674-4.638c.351-.28.725-.529 1.119-.745.756-.447 1.477-.887 2.116-1.228a16.37 16.37 0 0 1 6.992-1.545c5.072.597 6.073 3.761 5.881 5.094a3.37 3.37 0 0 1-1.609 2.28c-.352.223-.469.298-.437.458.042.234.213.223.511.181a3.96 3.96 0 0 0 2.759-3.526c.156-3.125-2.823-6.553-8.098-6.522-1.579.003-3.143.314-4.603.917-.234.097-.462.201-.683.313l.008.005zm-7.539 12.248c-1.684 1.833-4.028 2.525-5.041 1.939-1.094-.625-.661-3.336 1.406-5.275 1.224-1.103 2.548-2.091 3.953-2.952.245-.156.608-.362 1.044-.625l.117-.064.256-.156a7.28 7.28 0 0 1 .097 3.801c-.305 1.253-.938 2.403-1.833 3.331h0z" fill="#cd6799"/></svg>