<svg xmlns="http://www.w3.org/2000/svg" width="100%" height="100%" viewBox="0 0 50 50" fill="currentColor" xmlns:v="https://vecta.io/nano"><path fill-rule="evenodd" d="M5.144 14.519a1.56 1.56 0 0 1 .507-.34c.19-.079.393-.119.599-.119s.409.041.599.119a1.56 1.56 0 0 1 .507.34L25 32.166l17.644-17.647c.145-.145.318-.261.508-.339s.393-.119.599-.119.409.04.599.119.362.194.508.339.261.318.339.508.119.393.119.599-.041.409-.119.599-.194.362-.339.508l-18.75 18.75c-.145.145-.318.261-.507.34s-.393.119-.599.119a1.56 1.56 0 0 1-1.106-.459l-18.75-18.75c-.146-.145-.261-.318-.34-.507s-.119-.393-.119-.599a1.56 1.56 0 0 1 .459-1.106h0z" fill="currentColor"/></svg>