<svg xmlns="http://www.w3.org/2000/svg" 
viewBox="0 0 50 50" width="100%" height="100%" fill="currentColor"  xmlns:v="https://vecta.io/nano"><path fill-rule="evenodd" d="M25 0C11.188 0 0 11.188 0 25c0 11.063 7.156 20.406 17.094 23.719 1.25.219 1.719-.531 1.719-1.187l-.031-4.656c-6.281 1.156-7.906-1.531-8.406-2.937-.281-.719-1.5-2.937-2.562-3.531-.875-.469-2.125-1.625-.031-1.656 1.969-.031 3.375 1.813 3.844 2.563 2.25 3.781 5.844 2.719 7.281 2.063.219-1.625.875-2.719 1.594-3.344-5.562-.625-11.375-2.781-11.375-12.344 0-2.719.969-4.969 2.563-6.719-.25-.625-1.125-3.188.25-6.625 0 0 2.094-.656 6.875 2.563 2-.562 4.125-.844 6.25-.844s4.25.281 6.25.844c4.781-3.25 6.875-2.562 6.875-2.562 1.375 3.438.5 6 .25 6.625C40.031 18.719 41 20.938 41 23.688c0 9.594-5.844 11.719-11.406 12.344.906.781 1.688 2.281 1.688 4.625l-.031 6.875c0 .656.469 1.438 1.719 1.188A25.04 25.04 0 0 0 50 25C50 11.188 38.813 0 25 0z" fill="currentColor"/></svg>