<svg xmlns="http://www.w3.org/2000/svg"
viewBox="0 0 50 50" width="100%" height="100%" fill="none"  xmlns:v="https://vecta.io/nano"><path d="M9.222 42.502L5.711 3.125h38.578l-3.516 39.37-15.797 4.38-15.755-4.373z" fill="#e44f26"/><path d="M25 43.528l12.766-3.539 3.003-33.644H25v37.183z" fill="#f1662a"/><path d="M25 20.949h-6.391l-.441-4.945H25v-4.83H12.891l1.302 14.605H25v-4.83zm0 12.542l-.022.006-5.378-1.452-.344-3.852h-4.848l.677 7.581 9.894 2.747.022-.006V33.49z" fill="#ebebeb"/><path d="M24.983 20.948v4.83h5.947l-.559 6.264-5.387 1.453v5.025l9.902-2.745.072-.816 1.253-14.011H24.983zm0-9.774v4.83h11.666l.097-1.084.336-3.745H24.983z" fill="#fff"/></svg>