<svg width="700" height="183" viewBox="0 0 700 183" fill="none" xmlns="http://www.w3.org/2000/svg">
<g clip-path="url(#clip0)">
<path d="M105.456 25.1457C42.8388 -0.604028 -53.0022 -6.49962 -7.78978 69.2501L-18.2301 214.759L938.649 310.752C944.385 262.401 1053.44 69.4006 1052.41 61.5323C1051.12 51.6969 1040.71 -47.0628 989.453 -38.9043C956.485 -33.6573 939.657 -73.6421 934.394 -62.1821C929.13 -50.7221 969.045 68.4251 951.458 92.2655C930.097 121.221 833.286 239.648 775.559 239.843C717.832 240.038 591.455 258.93 556.183 219.521C546.588 208.801 503.746 196.746 480.732 202.041C457.718 207.336 334.36 187.82 389.268 100.775C417.857 55.4543 357.54 -18.0721 297.936 9.27336C237.5 37.0005 153.5 44.9025 105.456 25.1457Z" fill="#F2E8DF"/>
</g>
<defs>
<clipPath id="clip0">
<rect width="700" height="183" fill="white"/>
</clipPath>
</defs>
</svg>
