<svg width="1440" height="341" viewBox="0 0 1440 341" fill="none" xmlns="http://www.w3.org/2000/svg">
<g clip-path="url(#clip0)">
<path d="M1328.75 137.431C1466.26 90.0839 1483.1 153.496 1568.32 207.648L1572.41 521L-491.658 606.559C-497.879 502.151 -707.485 74.5563 -704.288 57.8123C-700.291 36.8823 -665.549 -173.596 -556.647 -149.656C-486.608 -134.26 -445.494 -217.89 -435.648 -192.653C-425.801 -167.416 -526.375 83.0744 -491.658 136.41C-449.49 201.191 -256.769 467.325 -133 475C-9.23069 482.675 259.406 539.076 340 459C361.923 437.218 455.313 416.752 504 431C552.687 445.248 971.543 361.1 864.736 167.532C809.126 66.7483 943.305 53.7582 1025.7 76.9038C1207.14 127.874 1172.72 191.152 1328.75 137.431Z" fill="url(#paint0_linear)"/>
</g>
<defs>
<linearGradient id="paint0_linear" x1="1464.71" y1="204.418" x2="714.33" y2="300.283" gradientUnits="userSpaceOnUse">
<stop stop-color="#005B63"/>
<stop offset="1" stop-color="#0097A1"/>
</linearGradient>
<clipPath id="clip0">
<rect width="1440" height="341" fill="white"/>
</clipPath>
</defs>
</svg>
