<svg width="1440" height="200" viewBox="0 0 1440 200" fill="none" xmlns="http://www.w3.org/2000/svg">
<g clip-path="url(#clip0)">
<path d="M-27.5 119C-67.7653 194.279 -16.5 156.368 -61 233.5V298.223H1545.5C1547 202.389 1549.1 6.9221 1545.5 -8.27818C1541 -27.2785 1632.23 -120.661 1533.5 -94.3681C1470 -77.4581 1554 -34.3682 1460 94.6318C1366 223.632 1007.76 173 918.5 173C773.5 173 770.5 122.167 706.5 143.5C666 157 626.805 150.232 605 126.132C586 105.132 548.5 81.0726 505 93C461.5 104.927 410.616 85.7766 378.5 64C295.5 7.72195 213.128 8.84753 169 18C34 46 -16 97.4999 -27.5 119Z" fill="#F2E8DF"/>
</g>
<defs>
<clipPath id="clip0">
<rect width="1440" height="200" fill="white"/>
</clipPath>
</defs>
</svg>
