<svg width="1440" height="341" viewBox="0 0 1440 341" fill="none" xmlns="http://www.w3.org/2000/svg">
<g clip-path="url(#clip0)">
<path d="M181.113 151.747C57.0983 102.934 39.1594 160.318 -41.0047 206.507L-48.4643 291.771L1632.12 438.803C1641.96 343.465 2047.78 175.137 2045.52 159.68C2042.69 140.36 2019.25 -53.7139 1918.6 -36.1262C1853.87 -24.815 1819.55 -103.013 1809.53 -80.3001C1799.52 -57.5867 1881.63 175.735 1847.73 223.184C1806.55 280.814 1558.42 357.48 1444.81 359.586C1331.19 361.692 1150.33 386.593 1079.73 310.08C1060.53 289.266 1002.87 270.73 957.73 281.839C912.591 292.948 499.239 370.716 604.716 197.752C659.634 107.695 537.309 90.468 460.958 108.382C292.819 147.832 321.822 207.132 181.113 151.747Z" fill="url(#paint0_linear)"/>
<path d="M158.5 219.697C30.7027 181.878 17.8333 240.607 -58 293.607V379.197H1629C1630.5 283.364 2020.1 80.3069 2016.5 65.1066C2012 46.1063 1971.74 -145.186 1873 -118.893C1809.5 -101.983 1768.5 -176.893 1760.5 -153.393C1752.5 -129.893 1854.64 95.3833 1825 145.606C1789 206.606 1548.5 304.606 1435.5 316.607C1322.5 328.607 1144.5 369.177 1067.5 299.107C1046.55 280.047 987.5 266.606 943.5 281.607C899.5 296.608 494.5 410.107 584.5 228.607C631.36 134.107 508 127.607 433.5 152.107C269.44 206.061 303.5 262.607 158.5 219.697Z" fill="#F2E8DF"/>
</g>
<defs>
<linearGradient id="paint0_linear" x1="53.978" y1="207.669" x2="737.134" y2="325.264" gradientUnits="userSpaceOnUse">
<stop stop-color="#005B63"/>
<stop offset="1" stop-color="#0097A1"/>
</linearGradient>
<clipPath id="clip0">
<rect width="1440" height="341" fill="white"/>
</clipPath>
</defs>
</svg>
