<svg width="1440" height="209" viewBox="0 0 1440 209" fill="none" xmlns="http://www.w3.org/2000/svg">
<path fill-rule="evenodd" clip-rule="evenodd" d="M1440 -0.000256324L1440 208.145C1408.24 204.928 1381.44 195.358 1369 181.59C1351.39 162.1 1323 158.442 1295 166.119C1267 173.797 1229.6 159.119 1216 144.09C1194.2 119.99 1169.85 107.1 1145.5 110.09C1091.45 116.728 1063.39 104.513 1024.84 87.7384C1013.86 82.9586 1002.03 77.8086 988.502 72.6192C808.002 3.37322 560.004 -13.8528 268.002 48.1188C107.288 82.227 53.2046 64.2135 20.2205 53.2275C12.7254 50.7312 6.31972 48.5976 1.40422e-05 47.521L1.81966e-05 -0.000382213L1440 -0.000256324Z" fill="#232622"/>
</svg>
