<svg width="1440" height="341" viewBox="0 0 1440 341" fill="none" xmlns="http://www.w3.org/2000/svg">
<g clip-path="url(#clip0)">
<path d="M183.592 137.306C60.4476 86.3354 41.51 143.397 -39.448 188.18L-48.3946 273.302L1629.36 449.641C1640.87 354.49 2049.56 193.269 2047.57 177.776C2045.08 158.409 2025.03 -36.0441 1924.09 -20.2157C1859.17 -10.0359 1826.23 -88.8213 1815.81 -66.2863C1805.4 -43.7512 1883.43 190.968 1848.71 237.818C1806.53 294.721 1557.1 367.045 1443.47 367.168C1329.83 367.291 1148.57 389.031 1079.31 311.297C1060.47 290.152 1003.15 270.612 957.82 280.931C912.494 291.251 497.848 361.794 606.327 190.696C662.808 101.612 540.803 82.2524 464.151 98.8314C295.349 135.341 323.312 195.137 183.592 137.306Z" fill="#005B63"/>
<path d="M158.5 219.697C30.7027 181.878 17.8333 240.607 -58 293.607V379.197H1629C1630.5 283.364 2020.1 80.3069 2016.5 65.1066C2012 46.1063 1971.74 -145.186 1873 -118.893C1809.5 -101.983 1768.5 -176.893 1760.5 -153.393C1752.5 -129.893 1854.64 95.3833 1825 145.606C1789 206.606 1548.5 304.606 1435.5 316.607C1322.5 328.607 1144.5 369.177 1067.5 299.107C1046.55 280.047 987.5 266.606 943.5 281.607C899.5 296.608 494.5 410.107 584.5 228.607C631.36 134.107 508 127.607 433.5 152.107C269.44 206.061 303.5 262.607 158.5 219.697Z" fill="#F2E8DF"/>
</g>
<defs>
<clipPath id="clip0">
<rect width="1440" height="341" fill="white"/>
</clipPath>
</defs>
</svg>
