<svg width="1440" height="341" viewBox="0 0 1440 341" fill="none" xmlns="http://www.w3.org/2000/svg">
<g clip-path="url(#clip0)">
<path d="M213.5 151.697C85.7027 113.878 17.8333 240.607 -58 293.607V379.197H1629C1630.5 283.364 2020.1 80.3069 2016.5 65.1066C2012 46.1063 1971.74 -145.186 1873 -118.893C1809.5 -101.983 1768.5 -176.893 1760.5 -153.393C1752.5 -129.893 1854.64 95.3833 1825 145.606C1789 206.606 1548.5 304.606 1435.5 316.607L1432.42 316.934C1318.85 329.004 1118.6 350.285 1019.5 260.107C998.555 241.047 939.5 227.606 895.5 242.607C851.5 257.608 549.5 342.107 639.5 160.607C686.36 66.1066 563 59.6065 488.5 84.1071C324.44 138.061 358.5 194.607 213.5 151.697Z" fill="#F2E8DF"/>
</g>
<defs>
<clipPath id="clip0">
<rect width="1440" height="341" fill="white"/>
</clipPath>
</defs>
</svg>
