<svg width="1440" height="341" viewBox="0 0 1440 341" fill="none" xmlns="http://www.w3.org/2000/svg">
<g clip-path="url(#clip0)">
<path d="M213.5 112.697C85.7027 74.878 17.8333 201.607 -58 254.607V362.197H1629C1630.5 266.364 2020.1 63.3069 2016.5 48.1066C2012 29.1063 1971.74 -162.186 1873 -135.893C1809.5 -118.983 1768.5 -193.893 1760.5 -170.393C1752.5 -146.893 1854.64 78.3833 1825 128.606C1789 189.606 1548.5 287.606 1435.5 299.607L1432.42 299.934C1318.85 312.004 1118.6 333.285 1019.5 243.107C998.555 224.047 939.5 210.606 895.5 225.607C851.5 240.608 612.5 280.107 702.5 98.6071C749.36 4.10657 626 -2.39348 551.5 22.1071C387.44 76.0612 358.5 155.607 213.5 112.697Z" fill="#F2E8DF"/>
</g>
<defs>
<clipPath id="clip0">
<rect width="1440" height="341" fill="white"/>
</clipPath>
</defs>
</svg>
