<svg width="1440" height="241" viewBox="0 0 1440 241" fill="none" xmlns="http://www.w3.org/2000/svg">
<path fill-rule="evenodd" clip-rule="evenodd" d="M0 240.334V0.589845C48.3146 -2.74805 94.4494 8.31923 112 27.7444C129.609 47.2344 158 50.8924 186 43.215C214 35.5376 251.402 50.215 265.001 65.2444C286.805 89.3443 311.154 102.234 335.501 99.2438C375.264 94.3606 387.524 109.844 402.189 128.365C413.137 142.192 425.426 157.712 451.5 167.715C632 236.961 1021 258.715 1172 192.215C1265.62 150.983 1296.78 157.422 1321 162.427C1335.84 165.495 1348.08 168.025 1370.5 158.715C1384.04 153.092 1394.9 142.899 1405.6 132.861C1416.38 122.747 1426.99 112.79 1440 107.823V240.334H0Z" fill="#232622"/>
</svg>
