<svg width="1440" height="241" viewBox="0 0 1440 241" fill="none" xmlns="http://www.w3.org/2000/svg">
<path fill-rule="evenodd" clip-rule="evenodd" d="M0 240.619V0.874634C48.3146 -2.46326 94.4494 8.60401 112 28.0291C129.609 47.5191 158 51.1772 186 43.4998C214 35.8224 251.402 50.4998 265.001 65.5292C286.805 89.6291 311.154 102.518 335.501 99.5286C375.264 94.6454 387.524 110.129 402.189 128.65C413.137 142.477 425.426 157.997 451.5 168C632 237.246 1021 259 1172 192.5C1265.62 151.268 1296.78 157.706 1321 162.712C1335.84 165.78 1348.08 168.309 1370.5 159C1384.04 153.377 1394.9 143.184 1405.6 133.145C1416.38 123.032 1426.99 113.075 1440 108.108V240.619H0Z" fill="#F2E8DF"/>
</svg>
