<svg width="1440" height="342" viewBox="0 0 1440 342" fill="none" xmlns="http://www.w3.org/2000/svg">
<path fill-rule="evenodd" clip-rule="evenodd" d="M0 341.619V100.455C24.4349 96.2499 38.868 82.3304 55.7293 66.0691C81.4012 41.3107 112.702 11.1238 193.502 1.52928C246.001 -4.70475 305.69 18.5293 344.502 78.0293C344.902 78.6425 345.31 79.2703 345.727 79.9113C360.269 102.27 385.214 140.624 427.502 129.029C471.002 117.102 504.502 145.529 523.502 166.529C545.307 190.629 569.656 203.519 594.002 200.529C620.662 197.255 640.627 215.464 661.542 234.539C676.321 248.019 691.575 261.931 710.001 269C874.996 332.298 1296.93 330.451 1440 231.137V341.619H0Z" fill="#F2E8DF"/>
</svg>
