<svg width="1440" height="341" viewBox="0 0 1440 341" fill="none" xmlns="http://www.w3.org/2000/svg">
<g clip-path="url(#clip0)">
<path d="M158.5 219.697C30.7027 181.878 17.8333 240.607 -58 293.607V379.197H1629C1630.5 283.364 2020.1 80.3069 2016.5 65.1066C2012 46.1063 1971.74 -145.186 1873 -118.893C1809.5 -101.983 1768.5 -176.893 1760.5 -153.393C1752.5 -129.893 1854.64 95.3833 1825 145.606C1789 206.606 1548.5 304.606 1435.5 316.607C1322.5 328.607 1144.5 369.177 1067.5 299.107C1046.55 280.047 987.5 266.606 943.5 281.607C899.5 296.608 494.5 410.107 584.5 228.607C631.36 134.107 508 127.607 433.5 152.107C269.44 206.061 303.5 262.607 158.5 219.697Z" fill="#F2E8DF"/>
</g>
<defs>
<clipPath id="clip0">
<rect width="1440" height="341" fill="white"/>
</clipPath>
</defs>
</svg>
