<svg width="1440" height="342" viewBox="0 0 1440 342" fill="none" xmlns="http://www.w3.org/2000/svg">
<path fill-rule="evenodd" clip-rule="evenodd" d="M0 341.591V178.276C0.0804863 178.193 0.160981 178.11 0.241486 178.028C53.4672 123.402 110.615 64.751 203 92.0905C279.685 114.784 301.41 93.8323 330.227 66.0403C355.899 41.2819 387.2 11.095 468 1.50047C504 -2.77434 580.188 18.5005 619 78.0005C619.4 78.6136 619.808 79.2415 620.225 79.8824C634.767 102.241 659.712 140.596 702 129.001C745.5 117.073 779 145.501 798 166.501C819.805 190.6 844.154 203.49 868.5 200.5C895.506 197.183 908.068 208.548 923.855 222.831C934.666 232.612 946.99 243.761 966.5 252.5C1011.13 272.488 1321.1 292.477 1440 191.53V341.591H0Z" fill="#F2E8DF"/>
</svg>
