<svg xmlns="http://www.w3.org/2000/svg" viewBox="0 0 50 50" width="100%" height="100%" fill="currentColor" xmlns:v="https://vecta.io/nano"><path d="M19 36.72l-.18.212c-.318.318-.739.511-1.188.544s-.894-.096-1.255-.364l-.21-.18L5.56 26.325c-.318-.318-.511-.739-.544-1.188s.096-.894.364-1.255l.18-.21 10.608-10.605c.335-.332.783-.526 1.255-.543s.932.145 1.29.453.586.739.639 1.208-.072.941-.351 1.321l-.18.21-7.405 7.408h31.71c.453 0 .891.164 1.232.462s.564.709.625 1.158l.017.252c.001.454-.163.892-.461 1.234s-.71.564-1.159.626l-.255.017h-31.71l7.405 7.405c.317.318.51.739.543 1.187s-.096.892-.363 1.253l-.18.212.18-.212z" fill="#000"/></svg>