<svg xmlns="http://www.w3.org/2000/svg" viewBox="0 0 50 50" width="100%" height="100%" fill="currentColor" xmlns:v="https://vecta.io/nano"><path d="M31 13.28l.18-.212c.318-.318.739-.511 1.188-.544s.894.096 1.255.364l.21.18L44.44 23.675c.318.318.511.739.544 1.188s-.096.894-.364 1.255l-.18.21-10.607 10.605c-.335.332-.783.526-1.255.543s-.932-.145-1.29-.453-.586-.739-.639-1.208.072-.941.351-1.321l.18-.21 7.405-7.407H6.875c-.453 0-.891-.164-1.232-.462s-.564-.709-.625-1.158L5 25.003c-.001-.454.163-.892.461-1.234s.71-.564 1.159-.626l.255-.017h31.71L31.18 15.72c-.317-.318-.51-.739-.543-1.187s.096-.893.363-1.253l.18-.212-.18.212z" fill="currentColor"/></svg>