<svg xmlns="http://www.w3.org/2000/svg" 
viewBox="0 0 50 50" width="100%" height="100%" fill="none"  xmlns:v="https://vecta.io/nano"><path d="M44.531 0H5.469A5.47 5.47 0 0 0 0 5.469v39.062A5.47 5.47 0 0 0 5.469 50h39.062A5.47 5.47 0 0 0 50 44.531V5.469A5.47 5.47 0 0 0 44.531 0z" fill="#092e20"/><path d="M36.402 18.398v12.935c0 4.457-.326 6.595-1.304 8.442-.906 1.776-2.102 2.899-4.565 4.131l-5.182-2.464c2.464-1.159 3.66-2.174 4.421-3.732.797-1.594 1.051-3.442 1.051-8.297V18.398h5.58zm-8.877-8.617v25.828c-2.862.543-4.964.761-7.246.761-6.812 0-10.363-3.079-10.363-8.986 0-5.689 3.768-9.384 9.602-9.384.906 0 1.594.072 2.428.29V9.781h5.58zm-7.464 12.711c-2.826 0-4.457 1.739-4.457 4.783 0 2.972 1.558 4.602 4.421 4.602.616 0 1.123-.036 1.92-.145v-8.95a5.54 5.54 0 0 0-1.884-.29h0zM36.402 9.811v5.725h-5.58V9.811h5.58z" fill="#fffffd"/></svg>