<svg xmlns="http://www.w3.org/2000/svg" viewBox="0 5 45 45" width="50" height="50" fill="currentColor"  xmlns:v="https://vecta.io/nano"><path d="M41.392 5.469H8.608a3.14 3.14 0 0 0-3.14 3.14v32.783a3.14 3.14 0 0 0 3.14 3.14h32.783a3.14 3.14 0 0 0 3.14-3.14V8.608a3.14 3.14 0 0 0-3.14-3.14h0zm0 35.937l-32.798-.015.015-32.798 32.798.015-.015 32.798zM11.26 20.112h5.796v18.643H11.26V20.112zm2.9-2.549c1.851 0 3.359-1.504 3.359-3.359a3.36 3.36 0 0 0-.984-2.375 3.36 3.36 0 0 0-2.375-.984 3.36 3.36 0 0 0-2.375.984 3.36 3.36 0 0 0-.984 2.375c-.005 1.855 1.499 3.359 3.359 3.359zM26.48 29.531c0-2.432.464-4.785 3.477-4.785 2.969 0 3.013 2.778 3.013 4.941v9.067h5.791V28.53c0-5.02-1.084-8.882-6.948-8.882-2.817 0-4.707 1.548-5.483 3.013h-.078v-2.549h-5.561v18.643h5.791v-9.224z" fill="currentColor"/></svg>