<svg width="100%" height="100%" viewBox="0 0 50 50" fill="currentColor" xmlns="http://www.w3.org/2000/svg">
<path d="M17.5 11.25C16.75 11.25 16.25 12 16.25 12.5V18.75H13.75V12.5C13.75 11.75 13.25 11.25 12.5 11.25C11.75 11.25 11.25 12 11.25 12.5V18.75H8.75V12.5C8.75 11.75 8.25 11.25 7.5 11.25C6.75 11.25 6.25 12 6.25 12.5V20.75C6.25 23 8 24.75 10 25V42.5C10 44 11 45 12.5 45C14 45 15 44 15 42.5V25C17 24.75 18.75 23 18.75 20.75V12.5C18.75 12 18.25 11.25 17.5 11.25ZM22.5 12.5V27.5H25V42.5C25 44 26 45 27.5 45C29 45 30 44 30 42.5V5C25.75 5 22.5 8.25 22.5 12.5ZM40 10C36.5 10 33.75 13.75 33.75 18.25C33.5 21.25 35 24 37.5 25.75V42.5C37.5 44 38.5 45 40 45C41.5 45 42.5 44 42.5 42.5V25.75C45 24 46.5 21.25 46.25 18.25C46.25 13.75 43.5 10 40 10Z" fill="currentColor"/>
</svg>
