<svg xmlns="http://www.w3.org/2000/svg" viewBox="0 0 51 50" width="100%" height="100%" fill="none"  xmlns:v="https://vecta.io/nano"><g clip-path="url(#C)"><path d="M25.223.014c-12.885 0-12.08 5.513-12.08 5.513l.014 5.711h12.296v1.715H8.274S.029 12.03.029 24.857s7.196 12.372 7.196 12.372h4.295v-5.952s-.232-7.1 7.082-7.1h12.195s6.852.109 6.852-6.533V6.661S38.689.014 25.223.014zm-6.78 3.841c.29 0 .578.056.847.166a2.21 2.21 0 0 1 .718.473 2.18 2.18 0 0 1 .48.708c.111.265.168.549.168.835s-.057.571-.168.835a2.18 2.18 0 0 1-.48.708 2.21 2.21 0 0 1-.718.473c-.268.11-.556.166-.847.166s-.578-.056-.847-.166a2.21 2.21 0 0 1-.718-.473 2.18 2.18 0 0 1-.479-.708c-.111-.265-.168-.549-.168-.835s.057-.571.168-.835a2.18 2.18 0 0 1 .479-.708 2.21 2.21 0 0 1 .718-.473c.269-.11.556-.166.847-.166h0z" fill="url(#A)"/><path d="M25.589 49.829c12.885 0 12.08-5.513 12.08-5.513l-.014-5.711H25.359V36.89h17.179s8.245.923 8.245-11.904-7.196-12.372-7.196-12.372h-4.295v5.952s.232 7.1-7.081 7.1H20.016s-6.852-.109-6.852 6.533v10.983s-1.04 6.646 12.425 6.646h0zm6.78-3.84c-.291 0-.578-.056-.847-.166a2.21 2.21 0 0 1-.718-.473c-.205-.203-.368-.443-.479-.708s-.168-.549-.168-.835.057-.571.168-.836a2.18 2.18 0 0 1 .479-.708c.206-.203.449-.363.718-.473s.556-.166.847-.166a2.24 2.24 0 0 1 .847.166c.268.11.512.27.718.473a2.18 2.18 0 0 1 .479.708c.111.265.168.549.168.836s-.057.571-.168.835a2.18 2.18 0 0 1-.479.708c-.206.203-.449.363-.718.473a2.24 2.24 0 0 1-.847.166h0z" fill="url(#B)"/></g><defs><linearGradient id="A" x1="4.906" y1="4.495" x2="29.723" y2="29.397" gradientUnits="userSpaceOnUse"><stop stop-color="#387eb8"/><stop offset="1" stop-color="#366994"/></linearGradient><linearGradient id="B" x1="20.345" y1="20.271" x2="47.012" y2="45.822" gradientUnits="userSpaceOnUse"><stop stop-color="#ffe052"/><stop offset="1" stop-color="#ffc331"/></linearGradient><clipPath id="C"><path fill="#fff" d="M0 0h50.877v50H0z"/></clipPath></defs></svg>