<svg xmlns="http://www.w3.org/2000/svg" width="100%" height="100%" fill="none"
viewBox="0 0 57 50"  xmlns:v="https://vecta.io/nano"><g clip-path="url(#A)"><path d="M46.33 16.19l-1.814-.569.28-1.233c1.373-6.641.475-11.99-2.59-13.752-2.94-1.689-7.747.072-12.602 4.282-.479.416-.946.843-1.403 1.282-.306-.292-.617-.578-.934-.859C22.179.84 17.078-1.057 14.015.709c-2.937 1.694-3.807 6.723-2.57 13.016a37.38 37.38 0 0 0 .416 1.86c-.722.204-1.419.422-2.085.654C3.81 18.311 0 21.559 0 24.927c0 3.479 4.09 6.969 10.304 9.085a31.99 31.99 0 0 0 1.523.475c-.166.664-.314 1.332-.442 2.004-1.178 6.184-.258 11.095 2.671 12.778 3.025 1.738 8.103-.048 13.047-4.354.401-.35.793-.71 1.176-1.08a36.9 36.9 0 0 0 1.523 1.385c4.789 4.106 9.519 5.764 12.445 4.076 3.022-1.743 4.005-7.018 2.73-13.436a31.81 31.81 0 0 0-.338-1.501 34.19 34.19 0 0 0 1.048-.326c6.46-2.132 10.663-5.58 10.663-9.105 0-3.381-3.933-6.65-10.019-8.738h0zm-1.401 15.567c-.308.102-.624.2-.946.295-.713-2.249-1.676-4.641-2.853-7.112 1.124-2.412 2.049-4.773 2.742-7.008.577.166 1.136.341 1.675.526 5.215 1.789 8.395 4.433 8.395 6.47 0 2.17-3.435 4.988-9.013 6.829h0zm-2.314 4.569c.564 2.838.644 5.404.271 7.409-.335 1.802-1.01 3.004-1.845 3.485-1.776 1.024-5.573-.307-9.669-3.818a34.46 34.46 0 0 1-1.417-1.287c1.588-1.73 3.175-3.741 4.723-5.975 2.724-.241 5.298-.635 7.632-1.172a29.41 29.41 0 0 1 .305 1.358h0zM19.211 47.043c-1.735.61-3.117.628-3.952.148-1.777-1.021-2.516-4.964-1.508-10.253.12-.625.257-1.246.411-1.864 2.308.509 4.863.875 7.593 1.095 1.559 2.186 3.192 4.195 4.837 5.954-.35.337-.708.666-1.073.985-2.186 1.904-4.377 3.255-6.308 3.934h0zm-8.128-15.3c-2.748-.936-5.017-2.152-6.572-3.479-1.398-1.192-2.103-2.376-2.103-3.337 0-2.044 3.059-4.652 8.161-6.424.619-.215 1.267-.418 1.94-.608.705 2.285 1.63 4.674 2.746 7.09-1.131 2.452-2.069 4.879-2.781 7.191-.467-.133-.931-.278-1.391-.434h0zm2.725-18.478c-1.059-5.392-.356-9.459 1.414-10.48 1.885-1.087 6.054.463 10.447 4.35.287.254.568.513.845.777-1.637 1.752-3.255 3.746-4.8 5.918-2.65.245-5.187.638-7.519 1.164-.144-.573-.273-1.15-.387-1.73h0zm24.307 5.98c-.551-.948-1.122-1.884-1.714-2.808a53.39 53.39 0 0 1 5.138.895c-.486 1.551-1.091 3.172-1.803 4.834-.521-.985-1.061-1.959-1.621-2.921h0zm-9.912-9.619c1.11 1.198 2.222 2.536 3.316 3.988a71.12 71.12 0 0 0-6.66-.001c1.095-1.438 2.216-2.775 3.344-3.987zm-9.976 9.635c-.553.955-1.083 1.923-1.591 2.903-.701-1.656-1.301-3.285-1.79-4.858 1.608-.358 3.322-.651 5.109-.874-.598.929-1.174 1.872-1.727 2.828h0zm1.779 14.332c-1.846-.205-3.586-.483-5.193-.832a53.55 53.55 0 0 1 1.827-4.956 70.28 70.28 0 0 0 1.597 2.905c.571.982 1.162 1.945 1.769 2.883zm8.264 6.805c-1.141-1.226-2.279-2.583-3.39-4.042a84.6 84.6 0 0 0 3.297.064c1.149 0 2.284-.026 3.401-.075-1.097 1.485-2.205 2.844-3.308 4.054zm11.49-12.679c.753 1.71 1.388 3.365 1.892 4.939-1.634.371-3.398.671-5.256.893a83.64 83.64 0 0 0 1.73-2.857c.567-.979 1.112-1.971 1.634-2.975h0zm-3.719 1.777c-.854 1.477-1.755 2.926-2.703 4.345a72.77 72.77 0 0 1-5.16.181 79.21 79.21 0 0 1-5.102-.161 67.95 67.95 0 0 1-2.754-4.352h0a67.34 67.34 0 0 1-2.404-4.523 67.96 67.96 0 0 1 2.397-4.526h0a67.38 67.38 0 0 1 2.732-4.334 68.41 68.41 0 0 1 5.131-.192h0c1.745 0 3.465.066 5.14.194.956 1.407 1.861 2.848 2.715 4.319s1.669 2.977 2.429 4.504a72.13 72.13 0 0 1-2.421 4.544h0zm4.966-26.782c1.887 1.084 2.621 5.456 1.435 11.19a32.03 32.03 0 0 1-.253 1.116c-2.338-.538-4.877-.937-7.535-1.186-1.548-2.197-3.153-4.194-4.763-5.923.422-.405.854-.8 1.296-1.184 4.16-3.607 8.048-5.031 9.82-4.013h0zM28.175 19.914c2.779 0 5.032 2.244 5.032 5.013s-2.253 5.013-5.032 5.013-5.032-2.244-5.032-5.013 2.253-5.013 5.032-5.013h0z" fill="#00D8FF"/></g><defs><clipPath id="A"><path fill="currentColor" d="M0 0h56.349v50H0z"/></clipPath></defs></svg>