<svg xmlns="http://www.w3.org/2000/svg" width="100%" height="100%" fill="none" 
viewBox="0 0 50 50" xmlns:v="https://vecta.io/nano"><path d="M0 25V50H50V0H0V25Z" fill="#007acc"/><path d="M11.057 25.166l-.016 2.047h6.508v18.492h4.604V27.214h6.508v-2.008l-.055-2.064c-.024-.032-3.984-.048-8.786-.04l-8.738.024-.024 2.04zm29.288-2.098c1.27.318 2.238.881 3.127 1.802.46.492 1.143 1.389 1.198 1.603.016.064-2.159 1.524-3.476 2.341-.048.032-.238-.175-.453-.492-.643-.936-1.317-1.341-2.349-1.412-1.516-.103-2.492.69-2.484 2.016 0 .389.055.619.214.937.333.69.952 1.103 2.897 1.944 3.579 1.54 5.111 2.556 6.063 4 1.064 1.611 1.302 4.183.579 6.095-.794 2.079-2.762 3.492-5.532 3.96-.857.151-2.889.127-3.809-.04-2.008-.357-3.913-1.349-5.087-2.651-.46-.508-1.357-1.833-1.302-1.929.024-.032.23-.159.46-.294l3.294-1.905.302.445c.421.643 1.341 1.524 1.897 1.817 1.595.841 3.786.722 4.865-.246.46-.42.651-.857.651-1.5 0-.579-.072-.833-.373-1.27-.389-.556-1.182-1.024-3.437-2-2.579-1.111-3.69-1.802-4.706-2.897a6.6 6.6 0 0 1-1.373-2.5c-.19-.706-.238-2.476-.087-3.19.532-2.492 2.413-4.23 5.127-4.746.881-.167 2.928-.103 3.794.111h0z" fill="#fff"/></svg>