<svg xmlns="http://www.w3.org/2000/svg" width="100%" height="100%" fill="currentColor"
viewBox="0 0 50 50" xmlns:v="https://vecta.io/nano"><path d="M33.71 0c-5.5 0-8.562 4.102-9.858 6.902L8.371 35.36l4.369-.817L4.715 50l5.6-1.004 4.256-12.163c12.115 0 27.665-4.35 25.496-20.638 0 0-1.321-6.565-9.881-4.796-.869-2.958-.713-5.156 1.179-7.154 2.6-2.75 6.629-1.242 6.629-1.242L37.998.74C36.581.119 35.221 0 33.71 0zm5.035 5.256a1.03 1.03 0 0 0-1.031 1.031 1.03 1.03 0 0 0 1.031 1.031 1.03 1.03 0 0 0 1.031-1.031 1.03 1.03 0 0 0-1.031-1.031h0zM41.875 7.4l-2.692 3.279h6.104L41.875 7.4zm-7.763 9.979l.631.021-.083 1.146-.079.604c-.029.217-.052.454-.104.704l-.156.798-.221.875c-.087.3-.196.61-.298.933-.123.327-.253.652-.388.975l-.235.494-.121.25-.138.25-.279.5-.477.737-.177.238-.363.479c-.262.308-.521.625-.812.913-.279.304-.594.575-.9.854l-.479.396c-.16.135-.333.25-.5.375-.668.486-1.371.922-2.104 1.304-.723.377-1.452.717-2.175.994s-1.429.529-2.11.731a37.21 37.21 0 0 1-1.925.531 61.73 61.73 0 0 1-2.917.64l-1.113.212 1.106-.24c.704-.158 1.708-.383 2.898-.708a34.04 34.04 0 0 0 1.906-.575c.671-.219 1.369-.479 2.077-.777.71-.292 1.423-.646 2.129-1.033.711-.393 1.392-.839 2.038-1.333.158-.125.327-.242.479-.377l.46-.398c.292-.281.592-.552.854-.854.279-.285.521-.6.769-.902.119-.156.227-.319.34-.475l.167-.233.15-.244.294-.481.385-.729.11-.246.215-.483a35.04 35.04 0 0 0 .354-.948l.262-.908.196-.85.129-.775c.046-.242.063-.473.088-.685l.063-.583.054-1.114z" fill="currentColor"/></svg>