<svg xmlns="http://www.w3.org/2000/svg" width="100%" height="100%" fill="none" viewBox="0 0 50 50"  xmlns:v="https://vecta.io/nano"><circle cx="25" cy="25" r="24" fill="#f2f2f2"/><path d="M24.971 50C11.01 49.732.098 38.287 0 24.971.271 11.021 11.655.098 24.971 0 38.923.279 49.902 11.637 50 24.971 49.724 38.934 38.305 49.902 24.971 50zm0-48.229c-12.963.255-23.167 10.822-23.257 23.2.252 12.974 10.879 23.167 23.257 23.257 12.974-.252 23.167-10.879 23.257-23.257-.245-12.973-10.897-23.11-23.257-23.2h0zm-6 43.657l6.4-18.4 6.686 18c-4.504 1.508-8.763 1.599-13.086.4zm-4.914-32.514a39.18 39.18 0 0 1-6.857.343c4.245-6.069 11.042-9.483 17.771-9.543 5.505.104 10.636 2.185 14.4 5.6-1.745-.129-2.791.636-3.543 1.943-1.093 3.373 1.217 5.869 2.514 8.4 1.227 2.313 1.13 4.942.457 7.2l-3.2 10.914-7.714-22.914c.804-.075 1.613-.099 2.343-.229.864-.192 1.054-.996.457-1.486-.191-.152-.4-.228-.629-.228l-4.629.343h-3.514c-.992.059-3.794-.9-4.029.4-.121.501.253.893.686.971l2.343.286 3.371 9.029L19.6 37.772l-7.771-22.914c.822-.071 1.656-.096 2.4-.229.61-.076.876-.381.8-.914a1.03 1.03 0 0 0-.972-.8h0zm-8.571 3.543l10.229 27.657c-3.691-1.819-6.609-4.494-8.686-7.686-3.8-6.064-4.199-13.757-1.543-19.971h0zm39.971 14.2c-1.679 5.484-5.109 10.026-9.857 12.772a129.22 129.22 0 0 0 1.086-3.086l5.943-17.257c.571-1.676.971-3.543 1.2-5.6.077-.842.08-1.69-.057-2.457 2.435 5.252 3.126 10.454 1.686 15.629h0z" fill="#21759b"/></svg>